<mxfile host="app.diagrams.net" agent="Mozilla/5.0 (Windows NT 10.0; Win64; x64) AppleWebKit/537.36 (KHTML, like Gecko) Chrome/130.0.0.0 Safari/537.36" version="24.8.3">
  <diagram id="C5RBs43oDa-KdzZeNtuy" name="Page-1">
    <mxGraphModel dx="1400" dy="869" grid="1" gridSize="10" guides="1" tooltips="1" connect="1" arrows="1" fold="1" page="1" pageScale="1" pageWidth="827" pageHeight="1169" math="0" shadow="0">
      <root>
        <mxCell id="WIyWlLk6GJQsqaUBKTNV-0" />
        <mxCell id="WIyWlLk6GJQsqaUBKTNV-1" parent="WIyWlLk6GJQsqaUBKTNV-0" />
        <mxCell id="U5ye4iSkCxhV2u94Pttj-18" value="" style="edgeStyle=orthogonalEdgeStyle;rounded=0;orthogonalLoop=1;jettySize=auto;html=1;" edge="1" parent="WIyWlLk6GJQsqaUBKTNV-1" source="U5ye4iSkCxhV2u94Pttj-13" target="U5ye4iSkCxhV2u94Pttj-14">
          <mxGeometry relative="1" as="geometry" />
        </mxCell>
        <mxCell id="U5ye4iSkCxhV2u94Pttj-13" value="start" style="strokeWidth=2;html=1;shape=mxgraph.flowchart.start_1;whiteSpace=wrap;" vertex="1" parent="WIyWlLk6GJQsqaUBKTNV-1">
          <mxGeometry x="364" y="40" width="100" height="60" as="geometry" />
        </mxCell>
        <mxCell id="U5ye4iSkCxhV2u94Pttj-19" value="no" style="edgeStyle=orthogonalEdgeStyle;rounded=0;orthogonalLoop=1;jettySize=auto;html=1;" edge="1" parent="WIyWlLk6GJQsqaUBKTNV-1" source="U5ye4iSkCxhV2u94Pttj-14" target="U5ye4iSkCxhV2u94Pttj-16">
          <mxGeometry relative="1" as="geometry" />
        </mxCell>
        <mxCell id="U5ye4iSkCxhV2u94Pttj-20" value="yes" style="edgeStyle=orthogonalEdgeStyle;rounded=0;orthogonalLoop=1;jettySize=auto;html=1;" edge="1" parent="WIyWlLk6GJQsqaUBKTNV-1" source="U5ye4iSkCxhV2u94Pttj-14" target="U5ye4iSkCxhV2u94Pttj-17">
          <mxGeometry relative="1" as="geometry" />
        </mxCell>
        <mxCell id="U5ye4iSkCxhV2u94Pttj-14" value="registered?" style="strokeWidth=2;html=1;shape=mxgraph.flowchart.decision;whiteSpace=wrap;" vertex="1" parent="WIyWlLk6GJQsqaUBKTNV-1">
          <mxGeometry x="364" y="150" width="100" height="100" as="geometry" />
        </mxCell>
        <mxCell id="U5ye4iSkCxhV2u94Pttj-21" style="edgeStyle=orthogonalEdgeStyle;rounded=0;orthogonalLoop=1;jettySize=auto;html=1;exitX=0.5;exitY=1;exitDx=0;exitDy=0;entryX=1;entryY=0.5;entryDx=0;entryDy=0;" edge="1" parent="WIyWlLk6GJQsqaUBKTNV-1" source="U5ye4iSkCxhV2u94Pttj-16" target="U5ye4iSkCxhV2u94Pttj-17">
          <mxGeometry relative="1" as="geometry">
            <mxPoint x="590" y="340" as="targetPoint" />
            <Array as="points">
              <mxPoint x="590" y="330" />
            </Array>
          </mxGeometry>
        </mxCell>
        <mxCell id="U5ye4iSkCxhV2u94Pttj-16" value="create profile" style="rounded=1;whiteSpace=wrap;html=1;absoluteArcSize=1;arcSize=14;strokeWidth=2;" vertex="1" parent="WIyWlLk6GJQsqaUBKTNV-1">
          <mxGeometry x="540" y="150" width="100" height="100" as="geometry" />
        </mxCell>
        <mxCell id="U5ye4iSkCxhV2u94Pttj-23" value="" style="edgeStyle=orthogonalEdgeStyle;rounded=0;orthogonalLoop=1;jettySize=auto;html=1;" edge="1" parent="WIyWlLk6GJQsqaUBKTNV-1" source="U5ye4iSkCxhV2u94Pttj-17" target="U5ye4iSkCxhV2u94Pttj-22">
          <mxGeometry relative="1" as="geometry" />
        </mxCell>
        <mxCell id="U5ye4iSkCxhV2u94Pttj-17" value="profile has been created" style="shape=parallelogram;html=1;strokeWidth=2;perimeter=parallelogramPerimeter;whiteSpace=wrap;rounded=1;arcSize=12;size=0.23;" vertex="1" parent="WIyWlLk6GJQsqaUBKTNV-1">
          <mxGeometry x="349" y="300" width="130" height="60" as="geometry" />
        </mxCell>
        <mxCell id="U5ye4iSkCxhV2u94Pttj-27" value="" style="edgeStyle=orthogonalEdgeStyle;rounded=0;orthogonalLoop=1;jettySize=auto;html=1;" edge="1" parent="WIyWlLk6GJQsqaUBKTNV-1" source="U5ye4iSkCxhV2u94Pttj-22" target="U5ye4iSkCxhV2u94Pttj-24">
          <mxGeometry relative="1" as="geometry" />
        </mxCell>
        <mxCell id="U5ye4iSkCxhV2u94Pttj-22" value="waiting to be called" style="strokeWidth=2;html=1;shape=mxgraph.flowchart.delay;whiteSpace=wrap;" vertex="1" parent="WIyWlLk6GJQsqaUBKTNV-1">
          <mxGeometry x="364" y="410" width="100" height="60" as="geometry" />
        </mxCell>
        <mxCell id="U5ye4iSkCxhV2u94Pttj-26" value="no" style="edgeStyle=orthogonalEdgeStyle;rounded=0;orthogonalLoop=1;jettySize=auto;html=1;exitX=1;exitY=0.5;exitDx=0;exitDy=0;exitPerimeter=0;entryX=1;entryY=0.5;entryDx=0;entryDy=0;entryPerimeter=0;" edge="1" parent="WIyWlLk6GJQsqaUBKTNV-1" source="U5ye4iSkCxhV2u94Pttj-24" target="U5ye4iSkCxhV2u94Pttj-22">
          <mxGeometry relative="1" as="geometry">
            <mxPoint x="550" y="430.0000000000002" as="targetPoint" />
            <Array as="points">
              <mxPoint x="530" y="570" />
              <mxPoint x="530" y="440" />
            </Array>
          </mxGeometry>
        </mxCell>
        <mxCell id="U5ye4iSkCxhV2u94Pttj-30" value="" style="edgeStyle=orthogonalEdgeStyle;rounded=0;orthogonalLoop=1;jettySize=auto;html=1;" edge="1" parent="WIyWlLk6GJQsqaUBKTNV-1" source="U5ye4iSkCxhV2u94Pttj-24" target="U5ye4iSkCxhV2u94Pttj-29">
          <mxGeometry relative="1" as="geometry" />
        </mxCell>
        <mxCell id="U5ye4iSkCxhV2u94Pttj-24" value="called?" style="strokeWidth=2;html=1;shape=mxgraph.flowchart.decision;whiteSpace=wrap;" vertex="1" parent="WIyWlLk6GJQsqaUBKTNV-1">
          <mxGeometry x="364" y="520" width="100" height="100" as="geometry" />
        </mxCell>
        <mxCell id="U5ye4iSkCxhV2u94Pttj-32" value="" style="edgeStyle=orthogonalEdgeStyle;rounded=0;orthogonalLoop=1;jettySize=auto;html=1;" edge="1" parent="WIyWlLk6GJQsqaUBKTNV-1" source="U5ye4iSkCxhV2u94Pttj-29" target="U5ye4iSkCxhV2u94Pttj-31">
          <mxGeometry relative="1" as="geometry" />
        </mxCell>
        <mxCell id="U5ye4iSkCxhV2u94Pttj-29" value="consultation" style="rounded=1;whiteSpace=wrap;html=1;absoluteArcSize=1;arcSize=14;strokeWidth=2;" vertex="1" parent="WIyWlLk6GJQsqaUBKTNV-1">
          <mxGeometry x="364" y="670" width="100" height="100" as="geometry" />
        </mxCell>
        <mxCell id="U5ye4iSkCxhV2u94Pttj-31" value="do a check" style="rounded=1;whiteSpace=wrap;html=1;absoluteArcSize=1;arcSize=14;strokeWidth=2;" vertex="1" parent="WIyWlLk6GJQsqaUBKTNV-1">
          <mxGeometry x="364" y="820" width="100" height="100" as="geometry" />
        </mxCell>
      </root>
    </mxGraphModel>
  </diagram>
</mxfile>
